<svg width="1774" height="696" viewBox="0 0 1774 696" fill="none" xmlns="http://www.w3.org/2000/svg">
<g clip-path="url(#clip0_490_310)">
<g opacity="0.6" filter="url(#filter0_f_490_310)">
<path d="M6.14767 383.686C53.2869 367.447 103.263 346.156 156.067 319.581C301.257 246.515 379.632 215.621 439.443 223.321C499.331 231.033 540.268 277.308 610.649 358.579C680.807 439.589 761.267 515.584 874.946 539.461C988.63 563.341 1135.66 535.125 1339.05 407.741C1518.2 295.542 1599.88 295.949 1640.31 342.64C1669.68 376.552 1677.1 434.855 1684.38 492.086C1691.73 549.885 1698.94 606.588 1728.45 635.567C1737.02 643.979 1747.49 650.047 1760.42 653.136L1760.22 654.718C1746.78 651.59 1735.91 645.32 1727.03 636.595C1697.18 607.287 1689.94 550.357 1682.56 492.332C1675.3 435.292 1667.91 377.182 1638.81 343.58C1598.98 297.585 1518.08 297.462 1340.09 408.933C1136.15 536.661 988.593 564.921 874.404 540.938C760.211 516.954 679.498 440.744 609.153 359.517C539.032 278.548 498.252 232.444 439.061 224.823C379.791 217.192 301.718 248.007 156.942 320.867C103.749 347.637 53.4102 369.058 5.93401 385.367L6.15128 383.681L6.14767 383.686Z" stroke="url(#paint0_linear_490_310)" stroke-width="0.76" stroke-miterlimit="10"/>
<path d="M4.19128 398.87C50.5782 381.943 99.63 360.025 151.338 332.886C294.94 257.515 372.662 225.369 432.715 232.066C492.844 238.773 534.929 284.306 607.324 364.294C679.483 444.026 761.839 518.577 876.206 540.536C990.576 562.495 1137.08 531.885 1337.66 401.31C1514.32 286.302 1596.09 285.359 1637.68 331.313C1667.89 364.689 1676.7 422.786 1685.35 479.811C1694.09 537.405 1702.66 593.913 1732.89 622.358C1740.98 629.968 1750.64 635.563 1762.29 638.644L1762.09 640.233C1749.94 637.106 1739.89 631.319 1731.49 623.41C1700.91 594.636 1692.3 537.91 1683.53 480.092C1674.91 423.253 1666.13 365.347 1636.2 332.277C1595.23 287.008 1514.24 288.226 1338.72 402.49C1137.61 533.412 990.575 564.079 875.692 542.021C760.807 519.963 678.198 445.204 605.843 365.258C533.722 285.57 491.803 240.211 432.362 233.582C372.844 226.943 295.427 259.009 152.238 334.163C100.133 361.511 50.7056 383.569 3.97177 400.574L4.19128 398.87Z" stroke="url(#paint1_linear_490_310)" stroke-width="0.76" stroke-miterlimit="10"/>
<path d="M2.23105 414.085C47.8907 396.482 96.0471 373.945 146.694 346.244C288.647 268.602 365.689 235.212 425.964 240.905C486.318 246.606 529.533 291.375 603.907 370.048C678.043 448.47 762.261 521.55 877.264 541.581C992.276 561.612 1138.21 528.618 1335.88 394.907C1509.99 277.135 1591.82 274.837 1634.55 320.037C1665.58 352.86 1675.78 410.729 1685.8 467.532C1695.92 524.898 1705.85 581.179 1736.79 609.085C1744.48 616.024 1753.5 621.197 1764.15 624.21L1763.94 625.812C1752.81 622.749 1743.42 617.382 1735.41 610.16C1704.12 581.936 1694.15 525.436 1684 467.843C1674.02 411.232 1663.84 353.559 1633.09 321.027C1590.99 276.503 1509.96 279.061 1336.98 396.07C1138.78 530.137 992.317 563.195 876.789 543.072C761.255 522.949 676.779 449.667 602.444 371.035C528.348 292.657 485.301 248.057 425.649 242.42C365.914 236.778 289.179 270.079 147.63 347.499C96.5722 375.425 48.0293 398.114 2.01257 415.803L2.23433 414.082L2.23105 414.085Z" stroke="url(#paint2_linear_490_310)" stroke-width="0.76" stroke-miterlimit="10"/>
<path d="M0.266305 429.334C45.218 411.069 92.5148 387.913 142.14 359.648C282.392 279.767 358.716 245.148 419.189 249.834C479.744 254.527 524.071 298.513 600.393 375.841C676.474 452.919 762.519 524.502 878.126 542.598C993.737 560.695 1139.03 525.328 1333.72 388.534C1505.21 268.047 1587.07 264.395 1630.92 308.82C1662.77 341.086 1674.36 398.698 1685.74 455.255C1697.24 512.373 1708.52 568.409 1740.15 595.761C1747.55 602.157 1756.07 606.984 1765.99 609.891L1765.79 611.478C1755.42 608.516 1746.51 603.52 1738.8 596.854C1706.8 569.186 1695.48 512.932 1683.94 455.594C1672.6 399.229 1661.04 341.806 1629.48 309.833C1586.28 266.07 1505.22 269.967 1334.85 389.674C1139.63 526.835 993.81 562.275 877.683 544.096C761.552 525.917 675.24 454.137 598.954 376.851C522.914 299.812 478.76 255.987 418.913 251.35C358.978 246.705 282.955 281.233 143.101 360.887C93.0547 389.393 45.3612 412.712 0.0396537 431.07L0.263658 429.331L0.266305 429.334Z" stroke="url(#paint3_linear_490_310)" stroke-width="0.76" stroke-miterlimit="10"/>
<path d="M-1.70388 444.625C42.5652 425.71 89.0374 401.94 137.68 373.106C276.175 291.013 351.751 255.179 412.402 258.857C473.135 262.54 518.552 305.73 596.799 381.681C674.795 457.387 762.633 527.435 878.792 543.591C994.953 559.746 1139.56 522.024 1331.19 382.197C1499.98 259.043 1581.84 254.039 1626.8 297.677C1659.45 329.366 1672.43 386.708 1685.17 442.991C1698.03 499.837 1710.66 555.606 1742.98 582.394C1750.19 588.371 1758.4 592.893 1767.82 595.674L1767.61 597.274C1757.75 594.438 1749.17 589.742 1741.65 583.506C1708.96 556.409 1696.29 500.425 1683.37 443.358C1670.67 387.259 1657.73 330.108 1625.38 298.705C1581.1 255.721 1500.04 260.958 1332.34 383.318C1140.19 523.517 995.057 561.322 878.38 545.097C761.694 528.869 673.586 458.623 595.378 382.711C517.422 307.044 472.181 264.016 412.161 260.377C352.055 256.733 276.775 292.468 138.674 374.328C89.5952 403.421 42.7187 427.366 -1.93076 446.386L-1.70388 444.625Z" stroke="url(#paint4_linear_490_310)" stroke-width="0.76" stroke-miterlimit="10"/>
<path d="M-3.6795 459.959C39.933 440.399 85.6074 416.016 133.311 386.604C269.992 302.336 344.796 265.303 405.597 267.969C466.482 270.638 512.976 313.014 593.113 387.557C672.998 461.865 762.599 530.361 879.259 544.566C995.926 558.773 1139.78 518.706 1328.29 375.906C1494.32 250.129 1576.15 243.776 1622.19 286.605C1655.62 317.709 1669.98 374.751 1684.08 430.743C1698.31 487.291 1712.28 542.771 1745.27 568.987C1752.42 574.666 1760.48 578.965 1769.64 581.612L1769.43 583.204C1759.85 580.506 1751.43 576.051 1743.97 570.125C1710.6 543.612 1696.58 487.915 1682.29 431.145C1668.25 375.338 1653.93 318.487 1620.8 287.662C1575.44 245.474 1494.43 252.045 1329.47 377.008C1140.46 520.191 996.078 560.346 878.889 546.076C761.694 531.806 671.819 463.123 591.721 388.616C511.882 314.347 465.568 272.131 405.398 269.491C345.145 266.848 270.638 303.78 134.339 387.813C86.1919 417.498 40.0992 442.072 -3.90397 461.747L-3.67389 459.961L-3.6795 459.959Z" stroke="url(#paint5_linear_490_310)" stroke-width="0.76" stroke-miterlimit="10"/>
<path d="M-5.66218 475.347C37.3199 455.149 82.2323 430.152 129.036 400.154C263.856 313.738 337.855 275.517 398.781 277.173C459.787 278.832 507.339 320.376 589.335 393.485C671.068 466.358 762.394 533.27 879.521 545.523C996.651 557.776 1139.7 515.383 1325 369.663C1488.21 241.317 1569.97 233.617 1617.08 275.619C1651.29 306.128 1667.03 362.847 1682.47 418.523C1698.07 474.757 1713.37 529.925 1747.02 555.556C1754.24 561.054 1762.31 565.191 1771.43 567.688L1771.22 569.27C1761.69 566.725 1753.27 562.444 1745.74 556.715C1711.7 530.789 1696.34 475.406 1680.68 418.955C1665.29 363.459 1649.61 306.921 1615.7 276.694C1569.3 235.319 1488.35 243.222 1326.2 370.741C1140.41 516.852 996.827 559.345 879.18 547.037C761.529 534.729 669.923 467.632 587.965 394.558C506.274 321.72 458.907 280.334 398.606 278.694C338.227 277.051 264.524 315.168 130.088 401.336C82.8326 431.627 37.4936 456.832 -5.89548 477.158L-5.66218 475.347Z" stroke="url(#paint6_linear_490_310)" stroke-width="0.76" stroke-miterlimit="10"/>
<path d="M-7.6519 490.79C34.7291 469.957 78.9102 444.34 124.852 413.739C257.751 325.216 330.918 285.819 391.953 286.465C453.063 287.11 501.655 327.804 585.476 399.449C669.032 470.865 762.047 536.168 879.585 546.462C997.128 556.757 1139.32 512.055 1321.34 363.474C1481.66 232.603 1563.32 223.558 1611.48 264.72C1646.46 294.618 1663.56 350.996 1680.35 406.336C1697.3 462.231 1713.93 517.065 1748.23 542.101C1755.65 547.521 1763.92 551.535 1773.21 553.872L1773.01 555.446C1763.32 553.07 1754.7 548.917 1746.98 543.275C1712.29 517.952 1695.59 462.904 1678.57 406.793C1661.84 351.631 1644.8 295.437 1610.14 265.816C1562.7 225.269 1481.86 234.503 1322.58 364.523C1140.07 513.503 997.351 558.312 879.286 547.973C761.215 537.631 667.915 472.152 584.134 400.543C500.621 329.162 452.215 288.618 391.811 287.981C331.333 287.344 258.461 326.625 125.937 414.9C79.5339 445.818 34.9095 471.658 -7.88871 492.628L-7.6519 490.79Z" stroke="url(#paint7_linear_490_310)" stroke-width="0.76" stroke-miterlimit="10"/>
<path d="M-9.65125 506.308C32.1616 484.838 75.6484 458.593 120.773 427.369C251.7 336.769 324.004 296.219 385.116 295.851C446.306 295.482 495.916 335.314 581.537 405.466C666.882 475.397 761.549 539.064 879.45 547.392C997.359 555.723 1138.64 508.727 1317.31 357.34C1474.68 224.001 1556.21 213.616 1605.4 253.925C1641.12 283.193 1659.59 339.211 1677.71 394.199C1696.01 449.731 1713.97 504.209 1748.9 528.642C1756.67 534.078 1765.31 538.014 1774.98 540.155L1774.78 541.724C1764.72 539.551 1755.75 535.482 1747.67 529.835C1712.34 505.125 1694.32 450.431 1675.94 394.682C1657.88 339.881 1639.48 284.051 1604.08 255.042C1555.62 215.341 1474.92 225.9 1318.57 358.377C1139.42 510.169 997.627 557.278 879.189 548.909C760.742 540.54 665.787 476.701 580.212 406.583C494.912 336.691 445.492 297.008 385.013 297.371C324.456 297.736 252.444 338.172 121.881 428.515C76.2872 460.069 32.3493 486.552 -9.89127 508.171L-9.65125 506.308Z" stroke="url(#paint8_linear_490_310)" stroke-width="0.76" stroke-miterlimit="10"/>
<path d="M-11.6605 521.903C29.6112 499.795 72.4411 472.908 116.783 441.041C245.692 348.401 317.106 306.71 378.271 305.329C439.51 303.947 490.122 342.9 577.505 411.534C664.605 479.95 760.887 541.955 879.11 548.319C997.341 554.683 1137.65 505.413 1312.9 351.282C1467.26 215.529 1548.62 203.806 1598.83 243.241C1635.28 271.878 1655.1 327.507 1674.55 382.112C1694.19 437.262 1713.47 491.369 1749.01 515.185C1757.28 520.727 1766.45 524.623 1776.73 526.517L1776.53 528.074C1765.88 526.159 1756.38 522.137 1747.82 516.399C1711.86 492.305 1692.52 437.991 1672.8 382.631C1653.41 328.205 1633.66 272.761 1597.53 244.379C1548.08 205.537 1467.55 217.422 1314.18 352.298C1138.47 506.839 997.643 556.232 878.887 549.84C760.123 543.446 663.546 481.272 576.21 412.672C489.158 344.296 438.742 305.488 378.202 306.856C317.591 308.223 246.464 349.795 117.923 442.169C73.1011 474.382 29.8062 501.522 -11.9037 523.791L-11.6605 521.903Z" stroke="url(#paint9_linear_490_310)" stroke-width="0.76" stroke-miterlimit="10"/>
<path d="M-13.6804 537.58C27.0838 514.828 69.2915 487.285 112.894 454.75C239.731 360.107 310.225 317.292 371.425 314.899C432.7 312.505 484.295 350.56 573.398 417.647C662.221 484.521 760.083 544.844 878.58 549.239C997.08 553.636 1136.36 502.11 1308.12 345.297C1459.41 207.176 1540.58 194.124 1591.78 232.669C1628.95 260.658 1650.11 315.883 1670.89 370.089C1691.86 424.832 1712.44 478.541 1748.6 501.735C1757.52 507.457 1767.41 511.308 1778.49 512.873L1778.3 514.422C1766.84 512.844 1756.64 508.878 1747.43 502.968C1710.86 479.508 1690.2 425.589 1669.14 370.633C1648.44 316.61 1627.35 261.572 1590.5 233.83C1540.07 195.864 1459.74 209.064 1309.43 346.287C1137.21 503.517 997.418 555.176 878.381 550.758C759.341 546.343 661.18 485.859 572.124 418.808C483.35 351.969 431.954 314.053 371.39 316.42C310.748 318.791 240.542 361.48 114.067 455.855C69.9696 488.757 27.2885 516.573 -13.9274 539.497L-13.6804 537.58Z" stroke="url(#paint10_linear_490_310)" stroke-width="0.76" stroke-miterlimit="10"/>
<path d="M-15.7127 553.354C24.5809 529.949 66.2051 501.726 109.107 468.493C233.821 371.882 303.369 327.962 364.571 324.559C425.853 321.153 478.407 358.297 569.2 423.814C659.708 489.119 759.108 547.731 877.835 550.16C996.565 552.587 1134.76 498.825 1302.96 339.391C1451.12 198.962 1532.07 184.583 1584.23 222.223C1622.11 249.554 1644.61 304.35 1666.7 358.136C1689 412.455 1710.88 465.745 1747.63 488.307C1757.35 494.274 1768.13 498.079 1780.25 499.193L1780.06 500.725C1767.59 499.6 1756.5 495.693 1746.49 489.551C1709.33 466.731 1687.36 413.235 1664.97 358.705C1642.96 305.102 1620.54 250.497 1582.99 223.403C1531.6 186.325 1451.5 200.841 1304.31 340.357C1135.66 500.216 996.946 554.116 877.678 551.679C758.407 549.242 658.704 490.471 567.957 424.994C477.496 359.723 425.145 322.713 364.574 326.082C303.925 329.455 234.663 373.246 110.303 469.581C66.8973 503.205 24.7892 531.712 -15.9636 555.301L-15.7127 553.354Z" stroke="url(#paint11_linear_490_310)" stroke-width="0.76" stroke-miterlimit="10"/>
<path d="M-17.7582 569.229C22.0961 545.161 63.172 516.24 105.414 482.275C227.955 383.737 296.527 338.727 357.716 334.315C418.983 329.895 472.476 366.118 564.925 430.033C657.084 493.744 757.984 550.628 876.89 551.082C995.802 551.538 1132.86 495.564 1297.44 333.571C1442.4 190.886 1523.09 175.186 1576.21 211.909C1614.78 238.577 1638.61 292.918 1662 346.258C1685.62 400.13 1708.8 452.979 1746.12 474.903C1756.79 481.173 1768.65 484.897 1782.03 485.401L1781.83 486.933C1768.12 486.424 1755.96 482.604 1745 476.168C1707.26 453.998 1683.99 400.943 1660.28 346.863C1636.97 293.701 1613.22 239.542 1574.99 213.113C1522.67 176.942 1442.82 192.762 1298.8 334.517C1133.78 496.941 996.211 553.063 876.762 552.606C757.307 552.149 656.102 495.116 563.699 431.236C471.59 367.557 418.301 331.466 357.75 335.836C297.121 340.209 228.828 385.085 106.633 483.343C63.888 517.719 22.3167 546.944 -18.0133 571.209L-17.7582 569.229Z" stroke="url(#paint12_linear_490_310)" stroke-width="0.76" stroke-miterlimit="10"/>
<path d="M-19.8187 585.222C19.6341 560.474 60.2038 530.829 101.827 496.088C222.148 395.659 289.726 349.574 350.868 344.155C412.086 338.729 466.5 374.012 560.571 436.304C654.34 498.396 756.704 553.524 875.748 552.008C994.795 550.493 1130.66 492.329 1291.55 327.842C1433.27 182.96 1513.67 165.944 1567.72 201.733C1606.97 227.723 1632.11 281.592 1656.8 334.469C1681.73 387.873 1706.19 440.261 1744.07 461.531C1755.85 468.151 1768.97 471.74 1783.83 471.418L1783.64 472.953C1768.46 473.27 1755.05 469.588 1742.98 462.812C1704.67 441.296 1680.12 388.701 1655.09 335.092C1630.49 282.393 1605.42 228.705 1566.53 202.95C1513.29 167.696 1433.74 184.817 1292.95 328.757C1131.62 493.685 995.247 552.007 875.665 553.532C756.077 555.055 653.41 499.781 559.388 437.523C465.665 375.465 411.465 340.31 350.947 345.673C290.354 351.045 223.06 396.988 103.082 497.13C60.938 532.306 19.8613 562.274 -20.075 587.234L-19.8158 585.222L-19.8187 585.222Z" stroke="url(#paint13_linear_490_310)" stroke-width="0.76" stroke-miterlimit="10"/>
<path d="M-21.895 601.337C17.1942 575.892 57.2979 545.49 98.3403 509.932C216.395 407.652 282.942 360.517 344.02 354.091C405.174 347.657 460.485 381.99 556.138 442.634C651.482 503.082 755.261 556.433 874.401 552.944C993.538 549.458 1128.16 489.125 1285.3 322.209C1423.71 175.187 1503.79 156.864 1558.74 191.708C1598.65 217.011 1625.11 270.383 1651.08 322.773C1677.31 375.683 1703.04 427.595 1741.47 448.209C1754.53 455.214 1769.09 458.598 1785.67 457.171L1785.47 458.716C1768.59 460.133 1753.75 456.657 1740.42 449.506C1701.55 428.658 1675.72 376.545 1649.39 323.429C1623.51 271.211 1597.13 218.016 1557.58 192.941C1503.45 158.621 1424.23 177.036 1286.71 323.104C1129.15 490.47 994.018 550.968 874.348 554.472C754.678 557.976 650.583 504.48 554.98 443.867C459.686 383.451 404.588 349.247 344.135 355.607C283.61 361.974 217.338 408.968 99.6194 510.953C58.0466 546.97 17.4278 577.713 -22.1587 603.384L-21.895 601.337Z" stroke="url(#paint14_linear_490_310)" stroke-width="0.76" stroke-miterlimit="10"/>
<path d="M-23.9895 617.593C14.7775 591.432 54.453 560.233 94.96 523.808C210.701 419.719 276.195 371.548 337.184 364.119C398.25 356.68 454.434 390.048 551.632 449.017C648.521 507.798 753.677 559.353 872.853 553.895C992.029 548.438 1125.36 485.962 1278.69 316.679C1413.74 167.574 1493.46 147.95 1549.31 181.833C1589.86 206.438 1617.62 259.296 1644.86 311.183C1672.38 363.582 1699.37 414.989 1738.33 434.936C1752.83 442.358 1769.02 445.404 1787.56 442.527L1787.36 444.091C1768.54 446.947 1752.07 443.812 1737.3 436.251C1697.91 416.081 1670.8 364.467 1643.18 311.862C1616.02 260.151 1588.36 207.469 1548.17 183.087C1493.16 149.711 1414.3 169.414 1280.12 317.551C1126.38 487.288 992.549 549.938 872.836 555.419C753.12 560.901 647.644 509.21 550.499 450.271C453.663 391.519 397.696 358.276 337.333 365.629C276.894 372.992 211.673 421.015 96.2601 524.804C55.2195 561.714 15.0185 593.265 -24.2564 619.665L-23.9895 617.593Z" stroke="url(#paint15_linear_490_310)" stroke-width="0.76" stroke-miterlimit="10"/>
<path d="M-26.102 633.989C12.3817 607.087 51.672 575.059 91.678 537.707C205.061 431.849 269.475 382.661 330.349 374.232C391.302 365.792 448.343 398.178 547.045 455.454C645.431 512.545 751.928 562.283 871.101 554.859C990.271 547.434 1122.25 482.838 1271.7 311.256C1403.34 160.129 1482.68 139.211 1539.39 172.117C1580.57 196.011 1609.62 248.336 1638.13 299.696C1666.92 351.566 1695.17 402.453 1734.64 421.727C1750.75 429.588 1768.76 432.175 1789.5 427.414L1789.3 429.009C1768.3 433.729 1750.02 431.047 1733.65 423.056C1693.73 403.566 1665.37 352.479 1636.47 300.408C1608.05 249.219 1579.1 197.073 1538.29 173.39C1482.43 140.976 1403.95 161.956 1273.16 312.106C1123.3 484.147 990.827 548.925 871.119 556.384C751.411 563.843 644.591 513.973 545.939 456.726C447.603 399.664 390.786 367.397 330.537 375.741C270.209 384.093 206.065 433.129 93.0074 538.685C52.4556 576.546 12.6343 608.946 -26.3711 636.101L-26.0993 633.992L-26.102 633.989Z" stroke="url(#paint16_linear_490_310)" stroke-width="0.76" stroke-miterlimit="10"/>
<path d="M-28.2353 650.546C10.0135 622.876 48.9569 589.975 88.5026 551.636C199.481 444.052 262.792 393.867 323.529 384.439C384.342 375.001 442.211 406.398 542.385 461.955C642.235 517.332 750.027 565.235 869.146 555.844C988.265 546.456 1118.84 479.764 1264.37 305.954C1392.54 152.862 1471.47 130.661 1529.02 162.579C1570.82 185.762 1601.14 237.527 1630.9 288.337C1660.96 339.656 1690.45 390.005 1730.42 408.593C1748.3 416.908 1768.34 418.86 1791.53 411.68L1791.32 413.315C1767.9 420.425 1747.61 418.377 1729.46 409.933C1689.02 391.128 1659.42 340.587 1629.24 289.072C1599.58 238.426 1569.36 186.831 1527.94 163.863C1471.25 132.42 1393.19 154.671 1265.84 306.773C1119.93 481.05 988.856 547.933 869.204 557.364C749.551 566.794 641.433 518.767 541.315 463.239C441.518 407.892 383.872 376.613 323.756 385.939C263.564 395.281 200.518 445.309 89.8596 552.585C49.759 591.457 10.2724 624.755 -28.5088 652.693L-28.232 650.544L-28.2353 650.546Z" stroke="url(#paint17_linear_490_310)" stroke-width="0.76" stroke-miterlimit="10"/>
<path d="M-30.3916 667.283C7.66225 638.81 46.3045 604.983 85.4345 565.589C193.967 456.32 256.145 405.16 316.72 394.74C377.379 384.307 436.054 414.7 537.651 468.514C638.926 522.158 747.974 568.207 866.99 556.857C986.007 545.508 1115.13 476.75 1256.66 300.774C1381.33 145.776 1459.81 122.296 1518.18 153.215C1560.57 175.671 1592.16 226.857 1623.16 277.104C1654.48 327.853 1685.2 377.642 1725.66 395.541C1745.5 404.323 1767.76 405.418 1793.66 395.165L1793.45 396.862C1767.34 407 1744.84 405.797 1724.72 396.897C1683.8 378.791 1652.96 328.813 1621.53 277.872C1590.63 227.792 1559.15 176.774 1517.14 154.52C1459.64 124.064 1382.02 147.577 1258.17 301.568C1116.25 478.014 986.639 546.969 867.085 558.371C747.528 569.772 638.155 523.606 536.609 469.817C435.387 416.2 376.935 385.92 316.982 396.23C256.952 406.555 195.033 457.558 86.8122 566.516C47.1267 606.471 7.92916 640.719 -30.671 669.474L-30.3886 667.283L-30.3916 667.283Z" stroke="url(#paint18_linear_490_310)" stroke-width="0.76" stroke-miterlimit="10"/>
<path d="M-32.5733 684.216C5.33502 654.905 43.7227 620.091 82.471 579.563C188.513 468.653 249.535 416.534 309.928 405.128C370.397 393.705 429.86 423.081 532.846 475.135C635.505 527.025 745.763 571.2 864.632 557.893C983.504 544.586 1111.12 473.786 1248.61 295.72C1369.72 138.878 1447.72 114.132 1506.88 144.04C1549.86 165.76 1582.69 216.351 1614.93 266.01C1647.48 316.168 1679.42 365.374 1720.35 382.578C1742.35 391.829 1767.03 391.802 1795.91 377.673L1795.68 379.464C1766.63 393.416 1741.72 393.31 1719.45 383.946C1678.05 366.544 1645.99 317.149 1613.31 266.801C1581.18 217.304 1548.45 166.879 1505.87 145.356C1447.58 115.895 1370.45 140.66 1250.13 296.485C1112.28 475.029 984.17 546.036 864.763 559.402C745.352 572.769 634.765 528.482 531.835 476.454C429.232 424.594 369.998 395.324 310.228 406.616C250.382 417.92 189.614 469.877 83.8749 580.471C44.5615 621.59 5.61388 656.838 -32.8542 686.442L-32.5677 684.219L-32.5733 684.216Z" stroke="url(#paint19_linear_490_310)" stroke-width="0.76" stroke-miterlimit="10"/>
<path d="M-34.7793 701.338C3.03573 671.154 41.2049 635.304 79.612 593.558C183.119 481.05 242.967 427.994 303.15 415.601C363.413 403.193 423.638 431.538 527.969 481.811C631.972 531.925 743.398 574.209 862.071 558.953C980.75 543.697 1106.82 470.881 1240.2 290.79C1357.7 132.166 1435.19 106.162 1495.13 135.047C1538.66 156.021 1572.74 205.997 1606.19 255.055C1639.98 304.597 1673.12 353.203 1714.5 369.705C1738.87 379.423 1766.19 377.969 1798.32 358.981L1798.07 360.881C1765.82 379.612 1738.28 380.913 1713.63 371.086C1671.78 354.397 1638.51 305.601 1604.6 255.866C1571.26 206.978 1537.29 157.171 1494.15 136.379C1435.1 107.926 1358.48 133.935 1241.75 291.528C1108 472.1 981.448 545.128 862.232 560.456C743.013 575.782 631.258 533.392 526.983 483.146C423.033 433.06 363.04 404.816 303.482 417.08C243.841 429.362 184.25 482.25 81.0344 594.439C42.0582 636.806 3.31074 673.116 -35.0722 703.611L-34.7793 701.338Z" stroke="url(#paint20_linear_490_310)" stroke-width="0.76" stroke-miterlimit="10"/>
<path d="M-37.0158 718.696C0.756275 687.595 38.7588 650.633 76.8606 607.575C177.797 493.513 236.443 439.542 296.394 426.169C356.425 412.78 417.386 440.086 523.026 488.56C628.33 536.878 740.88 577.253 859.317 560.051C977.755 542.849 1102.22 468.05 1231.46 286.007C1345.29 125.663 1422.24 98.4136 1482.94 126.262C1527.02 146.487 1562.32 195.825 1596.97 244.255C1631.97 293.169 1666.31 341.156 1708.12 356.946C1735.09 367.131 1765.27 363.888 1800.92 338.823L1800.65 340.879C1764.92 365.579 1734.53 368.626 1707.29 358.339C1664.99 342.365 1630.52 294.194 1595.39 245.093C1560.85 196.824 1525.67 147.648 1481.99 127.608C1422.2 100.174 1346.11 127.416 1233.02 286.719C1103.43 469.251 978.49 544.269 859.518 561.548C740.542 578.83 627.658 538.35 522.074 489.903C416.826 441.612 356.097 414.403 296.766 427.636C237.358 440.886 178.961 494.686 78.3138 608.425C39.6358 652.136 1.04589 689.583 -37.3079 721.009L-37.0092 718.691L-37.0158 718.696Z" stroke="url(#paint21_linear_490_310)" stroke-width="0.76" stroke-miterlimit="10"/>
</g>
</g>
<defs>
<filter id="filter0_f_490_310" x="-137.807" y="16.3323" width="2039.21" height="805.577" filterUnits="userSpaceOnUse" color-interpolation-filters="sRGB">
<feFlood flood-opacity="0" result="BackgroundImageFix"/>
<feBlend mode="normal" in="SourceGraphic" in2="BackgroundImageFix" result="shape"/>
<feGaussianBlur stdDeviation="50" result="effect1_foregroundBlur_490_310"/>
</filter>
<linearGradient id="paint0_linear_490_310" x1="106.683" y1="499.899" x2="1476.72" y2="998.115" gradientUnits="userSpaceOnUse">
<stop stop-color="#FE49FF"/>
<stop offset="0.29" stop-color="#778CBF"/>
<stop offset="0.725" stop-color="#778CBF"/>
<stop offset="0.964452" stop-color="#FE49FF"/>
</linearGradient>
<linearGradient id="paint1_linear_490_310" x1="106.683" y1="499.899" x2="1476.72" y2="998.115" gradientUnits="userSpaceOnUse">
<stop stop-color="#FE49FF"/>
<stop offset="0.29" stop-color="#778CBF"/>
<stop offset="0.725" stop-color="#778CBF"/>
<stop offset="0.964452" stop-color="#FE49FF"/>
</linearGradient>
<linearGradient id="paint2_linear_490_310" x1="106.683" y1="499.899" x2="1476.72" y2="998.115" gradientUnits="userSpaceOnUse">
<stop stop-color="#FE49FF"/>
<stop offset="0.29" stop-color="#778CBF"/>
<stop offset="0.725" stop-color="#778CBF"/>
<stop offset="0.964452" stop-color="#FE49FF"/>
</linearGradient>
<linearGradient id="paint3_linear_490_310" x1="106.683" y1="499.899" x2="1476.72" y2="998.115" gradientUnits="userSpaceOnUse">
<stop stop-color="#FE49FF"/>
<stop offset="0.29" stop-color="#778CBF"/>
<stop offset="0.725" stop-color="#778CBF"/>
<stop offset="0.964452" stop-color="#FE49FF"/>
</linearGradient>
<linearGradient id="paint4_linear_490_310" x1="106.683" y1="499.899" x2="1476.72" y2="998.115" gradientUnits="userSpaceOnUse">
<stop stop-color="#FE49FF"/>
<stop offset="0.29" stop-color="#778CBF"/>
<stop offset="0.725" stop-color="#778CBF"/>
<stop offset="0.964452" stop-color="#FE49FF"/>
</linearGradient>
<linearGradient id="paint5_linear_490_310" x1="106.683" y1="499.899" x2="1476.72" y2="998.115" gradientUnits="userSpaceOnUse">
<stop stop-color="#FE49FF"/>
<stop offset="0.29" stop-color="#778CBF"/>
<stop offset="0.725" stop-color="#778CBF"/>
<stop offset="0.964452" stop-color="#FE49FF"/>
</linearGradient>
<linearGradient id="paint6_linear_490_310" x1="106.683" y1="499.899" x2="1476.72" y2="998.115" gradientUnits="userSpaceOnUse">
<stop stop-color="#FE49FF"/>
<stop offset="0.29" stop-color="#778CBF"/>
<stop offset="0.725" stop-color="#778CBF"/>
<stop offset="0.964452" stop-color="#FE49FF"/>
</linearGradient>
<linearGradient id="paint7_linear_490_310" x1="106.683" y1="499.899" x2="1476.72" y2="998.115" gradientUnits="userSpaceOnUse">
<stop stop-color="#FE49FF"/>
<stop offset="0.29" stop-color="#778CBF"/>
<stop offset="0.725" stop-color="#778CBF"/>
<stop offset="0.964452" stop-color="#FE49FF"/>
</linearGradient>
<linearGradient id="paint8_linear_490_310" x1="106.683" y1="499.899" x2="1476.72" y2="998.115" gradientUnits="userSpaceOnUse">
<stop stop-color="#FE49FF"/>
<stop offset="0.29" stop-color="#778CBF"/>
<stop offset="0.725" stop-color="#778CBF"/>
<stop offset="0.964452" stop-color="#FE49FF"/>
</linearGradient>
<linearGradient id="paint9_linear_490_310" x1="106.683" y1="499.899" x2="1476.72" y2="998.115" gradientUnits="userSpaceOnUse">
<stop stop-color="#FE49FF"/>
<stop offset="0.29" stop-color="#778CBF"/>
<stop offset="0.725" stop-color="#778CBF"/>
<stop offset="0.964452" stop-color="#FE49FF"/>
</linearGradient>
<linearGradient id="paint10_linear_490_310" x1="106.683" y1="499.899" x2="1476.72" y2="998.115" gradientUnits="userSpaceOnUse">
<stop stop-color="#FE49FF"/>
<stop offset="0.29" stop-color="#778CBF"/>
<stop offset="0.725" stop-color="#778CBF"/>
<stop offset="0.964452" stop-color="#FE49FF"/>
</linearGradient>
<linearGradient id="paint11_linear_490_310" x1="106.683" y1="499.899" x2="1476.72" y2="998.115" gradientUnits="userSpaceOnUse">
<stop stop-color="#FE49FF"/>
<stop offset="0.29" stop-color="#778CBF"/>
<stop offset="0.725" stop-color="#778CBF"/>
<stop offset="0.964452" stop-color="#FE49FF"/>
</linearGradient>
<linearGradient id="paint12_linear_490_310" x1="106.683" y1="499.899" x2="1476.72" y2="998.115" gradientUnits="userSpaceOnUse">
<stop stop-color="#FE49FF"/>
<stop offset="0.29" stop-color="#778CBF"/>
<stop offset="0.725" stop-color="#778CBF"/>
<stop offset="0.964452" stop-color="#FE49FF"/>
</linearGradient>
<linearGradient id="paint13_linear_490_310" x1="106.683" y1="499.899" x2="1476.72" y2="998.115" gradientUnits="userSpaceOnUse">
<stop stop-color="#FE49FF"/>
<stop offset="0.29" stop-color="#778CBF"/>
<stop offset="0.725" stop-color="#778CBF"/>
<stop offset="0.964452" stop-color="#FE49FF"/>
</linearGradient>
<linearGradient id="paint14_linear_490_310" x1="106.683" y1="499.899" x2="1476.72" y2="998.115" gradientUnits="userSpaceOnUse">
<stop stop-color="#FE49FF"/>
<stop offset="0.29" stop-color="#778CBF"/>
<stop offset="0.725" stop-color="#778CBF"/>
<stop offset="0.964452" stop-color="#FE49FF"/>
</linearGradient>
<linearGradient id="paint15_linear_490_310" x1="106.683" y1="499.899" x2="1476.72" y2="998.115" gradientUnits="userSpaceOnUse">
<stop stop-color="#FE49FF"/>
<stop offset="0.29" stop-color="#778CBF"/>
<stop offset="0.725" stop-color="#778CBF"/>
<stop offset="0.964452" stop-color="#FE49FF"/>
</linearGradient>
<linearGradient id="paint16_linear_490_310" x1="106.683" y1="499.899" x2="1476.72" y2="998.115" gradientUnits="userSpaceOnUse">
<stop stop-color="#FE49FF"/>
<stop offset="0.29" stop-color="#778CBF"/>
<stop offset="0.725" stop-color="#778CBF"/>
<stop offset="0.964452" stop-color="#FE49FF"/>
</linearGradient>
<linearGradient id="paint17_linear_490_310" x1="106.683" y1="499.899" x2="1476.72" y2="998.115" gradientUnits="userSpaceOnUse">
<stop stop-color="#FE49FF"/>
<stop offset="0.29" stop-color="#778CBF"/>
<stop offset="0.725" stop-color="#778CBF"/>
<stop offset="0.964452" stop-color="#FE49FF"/>
</linearGradient>
<linearGradient id="paint18_linear_490_310" x1="106.683" y1="499.899" x2="1476.72" y2="998.115" gradientUnits="userSpaceOnUse">
<stop stop-color="#FE49FF"/>
<stop offset="0.29" stop-color="#778CBF"/>
<stop offset="0.725" stop-color="#778CBF"/>
<stop offset="0.964452" stop-color="#FE49FF"/>
</linearGradient>
<linearGradient id="paint19_linear_490_310" x1="106.683" y1="499.899" x2="1476.72" y2="998.115" gradientUnits="userSpaceOnUse">
<stop stop-color="#FE49FF"/>
<stop offset="0.29" stop-color="#778CBF"/>
<stop offset="0.725" stop-color="#778CBF"/>
<stop offset="0.964452" stop-color="#FE49FF"/>
</linearGradient>
<linearGradient id="paint20_linear_490_310" x1="106.683" y1="499.899" x2="1476.72" y2="998.115" gradientUnits="userSpaceOnUse">
<stop stop-color="#FE49FF"/>
<stop offset="0.29" stop-color="#778CBF"/>
<stop offset="0.725" stop-color="#778CBF"/>
<stop offset="0.964452" stop-color="#FE49FF"/>
</linearGradient>
<linearGradient id="paint21_linear_490_310" x1="106.683" y1="499.899" x2="1476.72" y2="998.115" gradientUnits="userSpaceOnUse">
<stop stop-color="#FE49FF"/>
<stop offset="0.29" stop-color="#778CBF"/>
<stop offset="0.725" stop-color="#778CBF"/>
<stop offset="0.964452" stop-color="#FE49FF"/>
</linearGradient>
<clipPath id="clip0_490_310">
<rect width="1774" height="696" fill="white"/>
</clipPath>
</defs>
</svg>
